<?xml version="1.0" standalone="no"?>
<!DOCTYPE svg PUBLIC "-//W3C//DTD SVG 20010904//EN"
 "http://www.w3.org/TR/2001/REC-SVG-20010904/DTD/svg10.dtd">
<svg version="1.0" xmlns="http://www.w3.org/2000/svg"
 width="1000.000000pt" height="1000.000000pt" viewBox="0 0 1000.000000 1000.000000"
 preserveAspectRatio="xMidYMid meet">

<g transform="translate(0.000000,1000.000000) scale(0.100000,-0.100000)"
fill="#000000" stroke="none">
<path d="M4240 9218 c-146 -9 -300 -21 -343 -27 -43 -6 -98 -11 -122 -11 -28
0 -45 -5 -48 -15 -7 -18 -12 -16 103 -59 52 -20 136 -52 185 -71 50 -19 114
-42 143 -50 55 -17 69 -35 27 -35 -35 0 -207 -45 -286 -76 -133 -50 -214 -111
-311 -231 -27 -35 -54 -63 -59 -63 -16 0 -118 -68 -191 -126 -56 -46 -85 -60
-189 -94 -68 -22 -157 -59 -198 -82 -124 -68 -275 -187 -258 -204 3 -4 28 8
54 25 93 62 398 210 409 198 4 -4 -121 -152 -186 -220 -53 -55 -57 -57 -118
-63 -44 -5 -70 -3 -88 6 -36 20 -53 0 -30 -35 29 -44 95 -103 136 -122 22 -10
40 -21 40 -25 0 -14 -116 -86 -146 -91 -61 -9 -168 14 -268 59 -55 24 -104 44
-108 44 -41 0 87 -116 178 -161 34 -17 80 -33 103 -36 48 -7 52 -22 12 -46
-84 -49 -282 -83 -361 -62 -25 7 -52 14 -60 16 -9 3 -16 -4 -18 -19 -3 -18 22
-47 120 -141 108 -105 237 -213 294 -247 16 -9 4 -17 -79 -57 -62 -29 -97 -51
-97 -61 0 -9 1 -16 3 -16 1 -1 64 -5 139 -10 153 -10 202 -25 253 -79 l30 -32
-30 -22 c-77 -55 -147 -135 -206 -233 -34 -57 -73 -111 -85 -119 -13 -9 -24
-22 -24 -30 0 -8 1 -15 3 -15 1 0 37 7 80 15 101 19 146 19 187 -1 49 -25 213
-15 305 19 38 14 71 24 74 21 3 -2 -18 -37 -45 -76 -36 -52 -63 -78 -98 -97
-57 -31 -60 -47 -8 -45 83 4 191 42 221 78 21 25 31 19 31 -16 0 -55 50 -277
91 -404 21 -66 39 -125 39 -131 0 -6 -24 -13 -53 -16 -108 -11 -264 -78 -280
-121 -3 -8 -2 -31 3 -52 5 -22 14 -65 20 -98 10 -49 20 -67 60 -108 41 -42 55
-68 90 -162 52 -143 120 -264 164 -294 19 -13 64 -29 100 -35 l65 -11 7 -45
c19 -132 89 -313 161 -419 45 -65 187 -193 281 -252 39 -25 70 -49 68 -55 -1
-5 -45 -39 -98 -75 -127 -87 -217 -160 -272 -221 -49 -54 -86 -140 -126 -289
-12 -47 -26 -94 -30 -105 -5 -11 -14 -42 -20 -70 -7 -27 -24 -68 -38 -90 -19
-30 -26 -55 -27 -105 -2 -43 -11 -82 -26 -115 -12 -27 -37 -93 -54 -145 l-32
-95 -77 -5 c-60 -4 -81 -9 -91 -24 -8 -10 -27 -74 -44 -143 -16 -68 -32 -127
-34 -130 -3 -3 -18 7 -34 22 -15 15 -37 30 -49 35 -12 5 -149 11 -305 14 -156
3 -374 8 -484 11 -110 3 -371 7 -580 10 -209 4 -434 8 -500 10 -66 2 -325 7
-576 11 l-457 7 -41 -43 c-22 -23 -41 -50 -41 -60 0 -10 23 -94 50 -186 124
-415 180 -606 235 -799 21 -71 72 -247 115 -390 112 -375 143 -485 139 -489
-2 -2 -31 0 -64 5 -33 5 -135 12 -227 15 l-167 7 -46 43 c-25 24 -63 53 -85
64 l-40 20 0 -24 c0 -16 8 -27 27 -35 41 -18 96 -68 89 -80 -12 -19 -44 -12
-70 14 -14 14 -30 25 -36 25 -7 0 -10 -78 -10 -235 l0 -235 253 0 c138 -1 347
-1 462 -2 310 -2 546 14 566 38 10 13 48 15 233 13 122 -2 286 -6 366 -10 80
-4 246 -12 370 -18 124 -6 250 -13 280 -16 30 -2 116 -7 190 -10 74 -3 164 -7
200 -10 36 -3 130 -7 210 -10 80 -3 165 -8 190 -10 50 -5 346 -18 370 -17 8 0
26 -1 39 -4 21 -5 22 -6 8 -22 -9 -9 -19 -29 -22 -44 -6 -24 -4 -28 13 -28 13
0 22 9 26 25 4 14 13 25 22 25 8 0 20 12 27 28 7 15 17 27 22 28 6 0 24 6 40
14 21 9 68 13 155 12 69 -1 157 2 195 7 39 6 113 13 165 16 52 4 109 8 125 10
54 7 155 8 161 3 3 -4 -14 -9 -38 -13 -200 -30 -590 -114 -606 -130 -2 -2 12
-7 32 -11 25 -4 57 0 104 15 79 25 118 33 277 60 66 12 130 23 142 25 11 3 43
8 70 12 51 7 84 20 95 38 10 15 286 24 598 19 264 -3 532 -12 538 -17 1 -2
-26 -14 -60 -26 -35 -13 -81 -31 -103 -41 -22 -10 -80 -32 -130 -50 -106 -37
-119 -45 -102 -64 7 -7 14 -9 17 -5 7 11 79 42 210 89 63 23 123 46 132 51 10
6 24 10 32 10 8 0 18 9 21 20 6 18 15 20 91 20 46 0 92 -4 102 -9 9 -6 60 -29
112 -52 l95 -43 160 -3 c88 -2 225 -8 304 -14 245 -19 292 -16 406 24 102 35
195 50 395 62 195 11 696 46 720 50 14 2 63 7 110 10 47 4 94 9 105 11 19 4
134 16 165 17 8 1 34 -2 57 -7 33 -6 55 -3 100 14 51 20 77 22 228 22 158 0
515 -15 735 -30 89 -7 150 1 150 19 0 15 -39 20 -165 25 -116 3 -228 8 -676
30 l-126 6 20 52 c11 28 23 89 28 135 5 46 18 122 28 170 70 309 74 329 69
444 -4 101 -7 117 -33 164 l-30 53 29 142 c15 79 39 193 53 253 32 144 60 273
78 360 7 39 25 124 39 190 31 144 32 175 6 208 -35 44 -99 61 -229 62 -97 0
-123 -3 -156 -20 -38 -19 -42 -26 -72 -115 -17 -52 -43 -138 -57 -190 -28
-101 -28 -99 -46 -173 -7 -26 -16 -50 -20 -52 -5 -3 -20 28 -35 67 -14 40 -30
81 -36 90 -5 10 -9 24 -9 32 0 14 -19 67 -159 441 -92 245 -241 586 -363 830
-84 168 -99 194 -156 265 -179 226 -330 315 -782 462 -52 17 -99 34 -105 38
-5 4 -44 17 -85 30 -197 58 -327 120 -460 220 -117 87 -152 104 -212 104 -48
1 -48 1 -48 34 0 32 13 52 91 144 16 20 34 31 52 31 28 -1 37 8 104 99 26 35
49 50 120 82 92 40 145 76 201 136 75 79 105 169 137 405 21 160 31 205 95
405 86 271 156 521 165 587 3 26 8 66 11 89 4 34 8 40 27 40 21 -1 22 3 23 89
3 161 2 157 22 151 27 -9 115 -10 140 -2 35 11 26 30 -42 90 -36 31 -83 84
-106 118 -37 56 -42 70 -50 152 -9 90 -36 213 -65 295 -8 24 -15 47 -15 50 0
4 29 5 65 3 95 -6 95 10 5 101 -75 75 -158 178 -225 282 -22 33 -64 83 -93
112 -58 56 -59 54 13 65 11 2 21 11 23 20 5 27 -76 52 -142 44 l-54 -7 9 39
c16 71 71 202 107 255 45 65 77 91 121 97 46 6 56 37 14 42 -108 13 -265 -69
-347 -181 -21 -28 -41 -51 -44 -51 -4 0 -8 34 -10 75 -2 88 -33 166 -105 267
-52 72 -259 278 -280 278 -30 0 -24 -15 32 -72 46 -46 65 -76 89 -136 41 -105
91 -312 75 -312 -8 0 -71 84 -108 144 -45 74 -76 116 -102 140 -57 53 -171 90
-314 102 -41 3 -76 8 -79 10 -6 6 38 46 88 79 42 28 53 45 29 45 -18 0 -55
-27 -109 -78 -26 -25 -50 -44 -52 -41 -3 3 13 26 35 52 56 65 23 63 -40 -3
-44 -45 -52 -50 -93 -50 -84 0 -158 20 -208 56 -82 59 -268 111 -496 139 -151
19 -309 17 -694 -7z m1136 -1731 c-51 -67 -34 -78 84 -52 36 8 85 15 110 15
25 0 64 9 88 20 23 10 42 16 42 12 0 -4 -16 -33 -36 -65 -49 -80 -35 -111 31
-67 17 11 34 20 39 20 15 0 -5 -134 -30 -192 -13 -32 -24 -64 -24 -72 0 -26
21 -29 46 -5 l24 22 0 -47 c0 -33 5 -48 15 -53 14 -5 14 -8 -1 -24 -21 -24
-11 -53 15 -44 18 5 19 3 11 -24 -6 -21 -5 -33 5 -41 7 -6 12 -18 10 -28 -2
-9 -11 -55 -21 -101 -17 -78 -17 -84 -1 -96 9 -7 17 -17 17 -24 0 -15 56 -125
109 -216 23 -38 41 -77 41 -85 0 -8 -12 4 -26 28 -47 78 -41 52 16 -73 35 -77
100 -242 100 -254 0 -5 -28 -14 -62 -20 -35 -6 -84 -16 -110 -22 -55 -12 -59
-13 -113 -23 -22 -4 -85 -16 -140 -27 -72 -14 -120 -18 -170 -13 -113 10 -522
13 -625 4 -221 -19 -397 -44 -444 -64 -20 -8 -47 -33 -63 -55 l-28 -41 -65 6
c-36 3 -85 1 -110 -5 -41 -9 -47 -8 -70 13 -63 59 -59 58 -312 52 l-234 -5
-17 62 c-9 34 -25 97 -36 141 l-20 78 32 -6 c51 -10 312 -19 342 -12 22 6 26
11 22 32 l-4 25 21 -20 c46 -44 49 -12 5 49 -25 34 -35 41 -55 37 -13 -2 -24
0 -24 5 0 13 -83 46 -132 51 -23 3 -70 8 -103 12 -45 5 -70 3 -97 -8 l-37 -15
-8 56 c-4 31 -7 127 -6 212 1 175 -2 167 98 217 27 14 75 45 106 69 l56 43
164 -5 c139 -5 179 -3 262 14 110 23 231 77 316 142 30 23 51 36 49 28 -45
-112 -65 -152 -101 -199 -53 -70 -132 -140 -185 -165 -23 -10 -42 -25 -42 -31
-1 -41 128 19 266 123 80 61 244 232 318 333 26 36 63 95 81 131 40 79 44 83
170 153 68 38 116 58 150 62 88 11 215 36 253 50 59 22 65 18 38 -18z m-2381
-946 c8 -14 -58 -25 -100 -17 -53 10 -32 26 35 26 32 0 61 -4 65 -9z m3759
-480 c56 -35 106 -120 125 -211 12 -60 7 -279 -7 -345 -37 -163 -104 -256
-236 -322 -85 -43 -175 -63 -288 -63 -87 0 -88 0 -103 -31 -41 -79 -70 -240
-69 -384 1 -139 24 -193 98 -230 35 -18 31 -56 -18 -152 -26 -48 -52 -97 -59
-108 -74 -118 -98 -155 -109 -167 -7 -7 -42 -47 -78 -88 -80 -92 -150 -157
-260 -242 -87 -67 -215 -138 -260 -145 -66 -9 -169 -4 -197 10 -43 23 -102 92
-129 153 -28 63 -60 181 -52 189 6 7 73 -28 100 -52 9 -8 24 -43 34 -79 17
-65 27 -77 38 -47 7 17 -10 116 -24 144 -5 8 -26 24 -47 35 -65 33 -133 75
-133 83 0 4 42 28 93 54 134 68 335 195 371 236 37 41 6 32 -80 -24 -166 -108
-413 -225 -522 -246 -31 -6 -115 -13 -187 -16 -215 -7 -282 15 -572 188 -256
152 -354 244 -433 404 -37 76 -84 231 -91 303 l-4 33 80 4 c179 9 290 45 341
112 45 58 54 116 54 327 l0 184 27 5 c42 8 85 -1 104 -20 9 -10 33 -81 54
-158 65 -243 131 -350 237 -384 132 -43 594 -19 700 35 89 46 128 140 163 395
13 88 21 119 38 137 22 23 192 81 457 155 180 51 166 52 162 -13 -2 -30 -8
-77 -13 -105 -10 -48 -9 -53 29 -130 22 -44 49 -89 61 -99 21 -19 21 -19 21 1
0 11 7 33 15 50 14 29 58 230 71 330 6 48 13 58 93 141 82 86 162 146 226 170
41 16 141 6 179 -17z m-1508 -216 c30 -19 48 -142 48 -335 0 -263 -31 -365
-124 -395 -94 -30 -488 -41 -580 -15 -94 26 -150 97 -184 235 -63 252 -59 417
11 458 30 17 177 47 232 47 24 0 24 -1 6 -14 -17 -12 -17 -16 -6 -30 11 -14
25 -15 72 -10 l59 7 0 -43 c0 -108 72 -351 111 -376 23 -14 160 -8 170 7 23
37 -3 249 -45 368 -9 24 -16 45 -16 46 0 2 19 3 43 3 144 0 168 2 174 17 7 20
3 24 -44 41 l-38 14 45 -6 c25 -3 55 -12 66 -19z m-1691 -89 c-11 -8 -16 -19
-12 -30 6 -15 16 -16 76 -10 l68 6 7 -58 c11 -90 54 -244 82 -291 24 -41 27
-43 73 -43 32 0 53 5 62 16 19 24 13 96 -20 226 -16 62 -31 125 -35 139 -5 25
-3 27 35 33 46 7 69 -6 96 -57 36 -71 74 -386 59 -489 -9 -60 -60 -120 -116
-137 -56 -17 -217 -33 -256 -26 l-31 5 -12 98 c-30 237 -54 385 -82 494 -16
64 -29 122 -29 127 0 6 12 11 27 11 25 0 26 -1 8 -14z m-102 -3 c-7 -2 -21 -2
-30 0 -10 3 -4 5 12 5 17 0 24 -2 18 -5z m-112 -55 c-4 -24 -6 -50 -5 -58 0
-8 2 -37 2 -63 2 -61 14 -65 105 -38 39 12 74 18 78 14 17 -20 84 -492 71
-505 -9 -9 -108 25 -140 49 -50 38 -112 192 -152 383 -27 128 -27 213 0 240
34 34 48 26 41 -22z m3043 -1356 c32 -62 53 -169 37 -185 -6 -6 -11 -19 -11
-28 0 -10 -5 -20 -10 -22 -6 -3 -5 -4 2 -3 7 1 14 12 16 24 2 12 8 22 13 22
14 0 11 -110 -6 -190 -16 -74 -72 -249 -86 -264 -9 -10 -3 194 7 259 4 22 13
53 21 68 19 38 9 47 -11 10 -14 -26 -15 -14 -16 165 0 119 4 192 10 192 5 0
21 -22 34 -48z m-82 -224 c0 -107 -5 -195 -11 -211 -8 -21 -8 -26 1 -21 8 5
10 -32 4 -150 -7 -182 -15 -207 -112 -348 -205 -297 -428 -486 -641 -544 -75
-20 -234 -20 -301 0 -132 39 -275 198 -341 380 -50 138 -65 240 -65 426 0 146
3 173 24 235 29 88 31 90 85 104 36 9 52 8 79 -3 30 -12 34 -19 40 -62 11 -77
55 -204 88 -256 35 -56 89 -105 134 -124 41 -17 164 -20 227 -5 150 35 410
243 598 476 56 69 162 238 174 277 14 42 18 2 17 -174z m-2922 -1314 c0 -22
-39 -222 -51 -260 -6 -19 -25 -40 -54 -58 -24 -16 -47 -37 -51 -48 -8 -26 -14
-18 -25 31 -7 32 -3 66 21 168 16 70 32 138 36 150 7 24 18 28 82 31 33 2 42
-1 42 -14z m-2405 -169 c480 -8 823 -15 1025 -20 102 -3 356 -7 565 -10 502
-8 491 -7 531 -46 17 -17 39 -45 47 -62 9 -18 127 -367 262 -777 136 -410 290
-869 343 -1020 105 -302 112 -342 72 -385 l-25 -27 -165 6 c-91 4 -201 9 -245
11 -44 3 -172 10 -285 15 -113 6 -241 12 -285 15 -44 2 -143 7 -220 10 -77 3
-165 8 -195 10 -30 2 -113 7 -185 10 -71 3 -155 8 -185 10 -58 5 -117 8 -425
25 -104 6 -208 13 -230 15 -22 2 -48 4 -57 4 -10 1 -26 18 -37 39 -23 46 -63
82 -133 121 -51 28 -205 85 -258 95 -14 2 -45 9 -70 15 -25 5 -67 13 -95 16
-27 4 -50 8 -51 9 -1 0 -18 62 -38 136 -21 74 -49 167 -63 205 -13 39 -35 111
-48 160 -37 140 -70 253 -98 335 -14 41 -35 111 -47 155 -12 44 -41 143 -65
220 -23 77 -62 208 -85 290 -23 83 -55 192 -71 243 -16 51 -29 101 -29 113 0
11 15 34 33 50 l32 30 235 -5 c129 -3 374 -8 545 -11z m8172 -1 c64 -12 89
-46 79 -108 -4 -22 -45 -216 -92 -431 -88 -403 -102 -469 -111 -520 -2 -16 -8
-33 -12 -37 -4 -5 -41 32 -83 82 -57 65 -95 123 -142 217 -95 186 -96 194 -57
333 18 63 48 171 67 240 30 105 63 210 68 210 0 0 19 7 41 15 38 14 160 14
242 -1z m-3767 -681 c0 -25 -3 -43 -7 -40 -3 4 -6 23 -5 42 1 43 1 45 7 45 3
0 5 -21 5 -47z m-1144 -435 c54 -36 138 -113 264 -241 245 -250 228 -242 490
-232 107 3 197 8 200 10 3 1 100 6 215 9 116 3 242 9 280 11 75 6 246 15 335
19 30 1 96 6 146 10 l91 8 36 -44 c49 -60 103 -163 120 -228 20 -81 21 -208 1
-293 -29 -126 -45 -175 -59 -187 -13 -11 -167 -16 -184 -6 -3 2 -60 7 -126 10
-115 7 -227 16 -420 36 -261 27 -388 33 -424 19 -25 -9 -85 -14 -191 -14 -129
-1 -170 -5 -248 -25 l-93 -23 -55 26 c-31 15 -73 44 -95 65 -92 85 -127 94
-274 67 -44 -8 -145 -17 -225 -21 -167 -8 -161 -11 -190 85 l-18 60 27 9 c69
26 140 44 248 62 65 11 122 25 127 30 6 6 17 10 26 10 22 0 46 28 54 63 8 34
-18 93 -47 108 -26 15 -97 5 -194 -27 -73 -24 -183 -85 -183 -102 0 -4 -18
-27 -40 -51 -26 -28 -42 -38 -45 -29 -2 7 -20 58 -40 112 -19 55 -33 107 -30
117 4 10 34 44 68 75 46 42 98 74 202 124 131 64 185 99 185 119 0 5 -24 -4
-52 -19 -29 -16 -113 -52 -186 -81 -126 -49 -136 -55 -185 -110 -28 -33 -54
-55 -58 -51 -4 4 -21 47 -37 96 -30 90 -30 90 -12 125 37 72 60 92 195 162 71
37 118 69 111 76 -5 6 -189 -74 -236 -103 -35 -21 -81 -74 -92 -104 -8 -21
-50 74 -46 103 2 18 32 34 183 95 277 113 296 120 351 121 45 1 59 -5 130 -51z
m-5 -637 c3 -1 13 -18 23 -38 17 -35 17 -38 0 -50 -28 -21 -80 -26 -196 -21
-136 7 -152 18 -74 53 99 44 189 64 247 56z m275 -482 c22 -17 40 -32 41 -33
1 -1 -6 -2 -15 -2 -47 -1 -204 -15 -256 -23 -59 -8 -59 -8 -70 20 -6 16 -14
29 -19 29 -5 0 -4 6 2 14 7 9 38 14 93 15 45 1 84 4 86 5 1 2 25 4 51 4 40 1
56 -4 87 -29z m-561 4 c11 -14 10 -20 -4 -30 -15 -12 -15 -13 2 -7 9 3 17 1
17 -4 0 -7 10 -8 29 -2 19 5 33 4 40 -3 8 -8 11 -6 11 6 0 21 7 21 26 2 9 -8
25 -15 37 -14 12 0 16 3 10 6 -7 2 -13 9 -13 14 0 15 15 10 27 -10 11 -18 7
-19 -108 -19 l-119 1 0 34 c0 21 4 32 10 28 6 -4 7 -11 4 -17 -4 -7 -2 -8 4
-4 6 4 9 13 5 21 -7 20 7 19 22 -2z m59 2 c-18 -13 -18 -14 6 -9 24 5 24 5 5
-7 -11 -7 -28 -15 -39 -16 -16 -3 -17 -1 -6 12 10 12 10 15 -4 15 -9 0 -16 5
-16 10 0 6 17 10 37 10 34 0 36 -1 17 -15z m81 -5 c3 -5 1 -10 -4 -10 -6 0
-11 5 -11 10 0 6 2 10 4 10 3 0 8 -4 11 -10z m62 -5 c-7 -7 -14 -9 -15 -4 -2
5 -8 7 -13 3 -5 -3 -9 -1 -9 4 0 5 11 10 24 10 19 0 22 -3 13 -13z m-353 -169
c-6 -16 -24 -23 -24 -8 0 10 22 33 27 28 2 -2 1 -11 -3 -20z"/>
<path d="M4970 6470 c-87 -8 -360 -64 -389 -79 -11 -6 -29 -11 -41 -11 -27 0
-36 -24 -20 -58 l12 -27 -27 25 c-22 21 -28 22 -35 10 -5 -8 -10 -19 -10 -23
0 -5 -10 -1 -22 7 -30 21 -38 20 -38 -5 0 -11 13 -33 28 -49 l28 -28 145 3
c248 5 392 18 599 55 158 28 156 27 134 51 -17 19 -17 19 27 0 56 -24 109 -36
109 -23 0 12 -21 29 -40 34 -8 2 -17 6 -20 9 -12 15 -119 63 -155 70 -22 4
-67 17 -99 28 -62 22 -66 22 -186 11z"/>
<path d="M6622 5884 c-100 -49 -146 -133 -123 -222 32 -120 27 -134 -56 -189
-31 -21 -58 -45 -60 -53 -3 -11 -1 -11 10 3 8 9 19 17 26 17 6 0 11 5 11 10 0
6 9 10 20 10 11 0 20 5 20 10 0 6 6 10 13 10 16 0 51 37 60 62 3 9 -3 49 -14
87 -25 92 -24 109 7 157 52 80 146 115 203 75 39 -28 42 -6 4 26 -34 29 -57
29 -121 -3z"/>
<path d="M6046 5491 c-5 -7 0 -30 10 -53 14 -31 15 -41 5 -47 -16 -10 -11 -83
7 -89 7 -2 12 6 12 22 0 28 9 33 28 14 29 -29 23 10 -14 84 -27 53 -43 77 -48
69z"/>
<path d="M4121 5006 c-26 -50 -31 -71 -26 -95 10 -47 25 -37 25 17 0 28 9 66
21 91 33 69 15 58 -20 -13z"/>
<path d="M4795 4466 c-21 -14 -67 -22 -180 -31 -38 -4 -99 -10 -134 -15 -40
-6 -71 -5 -82 1 -28 15 -82 11 -109 -8 l-25 -18 45 -5 c25 -3 72 -2 105 2 33
4 123 12 200 17 175 14 201 18 220 37 29 29 -4 46 -40 20z"/>
<path d="M4400 5533 c1 -103 30 -203 60 -203 41 0 49 109 13 169 -40 65 -59
91 -65 91 -5 0 -8 -26 -8 -57z"/>
<path d="M3350 5453 c0 -28 30 -137 41 -147 13 -14 10 70 -4 118 -13 42 -37
61 -37 29z"/>
<path d="M4868 3840 c-3 -17 -1 -33 4 -36 4 -3 8 -14 8 -25 0 -10 5 -19 11
-19 7 0 8 7 4 18 -4 9 -9 33 -12 52 -7 46 -10 48 -15 10z"/>
<path d="M4890 3741 c0 -6 4 -19 9 -29 5 -9 17 -36 27 -60 9 -24 28 -55 41
-70 13 -15 23 -33 23 -39 0 -7 5 -13 10 -13 14 0 12 16 -3 32 -17 17 -77 136
-77 153 0 7 -7 18 -15 25 -11 9 -15 9 -15 1z"/>
<path d="M5017 3523 c-13 -20 79 -118 151 -163 51 -31 72 -37 72 -20 0 6 -5
10 -10 10 -13 0 -89 48 -111 70 -8 8 -28 26 -45 40 -16 14 -34 36 -40 49 -6
15 -13 20 -17 14z"/>
<path d="M4000 1503 c-13 -15 -12 -16 4 -10 10 4 20 7 22 7 2 0 4 5 4 10 0 15
-13 12 -30 -7z"/>
<path d="M2028 305 c-2 -1 -50 -5 -108 -9 -179 -12 -290 -32 -280 -51 5 -11
11 -11 80 -2 25 4 68 9 95 11 112 12 152 17 190 23 22 4 62 6 88 6 26 0 44 4
40 8 -7 7 -99 19 -105 14z"/>
</g>
</svg>
